# xmcd
#
# Track frame offsets:
#	150
#	17707
#	33449
#	49099
#	65106
#	81113
#	95193
#	114992
#	130379
#	142834
#
# Disc length: 2112 seconds
#
# Revision: 0
# Processed by: cddbd v1.5.2PL0 Copyright (c) Steve Scherf et al.
# Submitted via: EasyCDDAExtractor 4.6.0.1
#
DISCID=88083e0a
DTITLE=Rhett Akins - A Thousand Memories
DYEAR=1985
DGENRE=Country
TTITLE0=Heart To Heart
TTITLE1=What They're Talking About
TTITLE2=Old Dirt Road
TTITLE3=She Said Yes
TTITLE4=That Ain't My Truck
TTITLE5=Katy Brought My Guitar Back Today
TTITLE6=Thousand Memories
TTITLE7=I Brake For Brunettes
TTITLE8=Same Ol' Story
TTITLE9=Those Hands
EXTD=
EXTT0=
EXTT1=
EXTT2=
EXTT3=
EXTT4=
EXTT5=
EXTT6=
EXTT7=
EXTT8=
EXTT9=
PLAYORDER=
